<mxfile host="app.diagrams.net" modified="2021-09-07T14:56:28.966Z" agent="5.0 (Macintosh; Intel Mac OS X 10_15_7) AppleWebKit/537.36 (KHTML, like Gecko) Chrome/92.0.4515.159 Safari/537.36" etag="qSPEqaXBAq_KNugDmqIh" version="15.1.0" type="github" pages="2">
  <diagram name="Page-1" id="9f46799a-70d6-7492-0946-bef42562c5a5">
    <mxGraphModel dx="1426" dy="794" grid="1" gridSize="10" guides="1" tooltips="1" connect="1" arrows="1" fold="1" page="1" pageScale="1" pageWidth="1100" pageHeight="850" background="none" math="0" shadow="0">
      <root>
        <mxCell id="0" />
        <mxCell id="1" parent="0" />
        <mxCell id="78961159f06e98e8-17" value="ServerApi" style="swimlane;html=1;fontStyle=1;align=center;verticalAlign=top;childLayout=stackLayout;horizontal=1;startSize=26;horizontalStack=0;resizeParent=1;resizeLast=0;collapsible=1;marginBottom=0;swimlaneFillColor=#ffffff;rounded=0;shadow=0;comic=0;labelBackgroundColor=none;strokeWidth=1;fillColor=none;fontFamily=Verdana;fontSize=12" parent="1" vertex="1">
          <mxGeometry x="55" y="80" width="330" height="490" as="geometry" />
        </mxCell>
        <mxCell id="78961159f06e98e8-21" value="+&amp;nbsp;_isAccessOffline" style="text;html=1;strokeColor=none;fillColor=none;align=left;verticalAlign=top;spacingLeft=4;spacingRight=4;whiteSpace=wrap;overflow=hidden;rotatable=0;points=[[0,0.5],[1,0.5]];portConstraint=eastwest;" parent="78961159f06e98e8-17" vertex="1">
          <mxGeometry y="26" width="330" height="26" as="geometry" />
        </mxCell>
        <mxCell id="78961159f06e98e8-23" value="+&amp;nbsp;_dataIsOffline" style="text;html=1;strokeColor=none;fillColor=none;align=left;verticalAlign=top;spacingLeft=4;spacingRight=4;whiteSpace=wrap;overflow=hidden;rotatable=0;points=[[0,0.5],[1,0.5]];portConstraint=eastwest;" parent="78961159f06e98e8-17" vertex="1">
          <mxGeometry y="52" width="330" height="26" as="geometry" />
        </mxCell>
        <mxCell id="78961159f06e98e8-25" value="+&amp;nbsp;_DYNAMIC_METHODS" style="text;html=1;strokeColor=none;fillColor=none;align=left;verticalAlign=top;spacingLeft=4;spacingRight=4;whiteSpace=wrap;overflow=hidden;rotatable=0;points=[[0,0.5],[1,0.5]];portConstraint=eastwest;" parent="78961159f06e98e8-17" vertex="1">
          <mxGeometry y="78" width="330" height="26" as="geometry" />
        </mxCell>
        <mxCell id="78961159f06e98e8-26" value="+ get:passOffline" style="text;html=1;strokeColor=none;fillColor=none;align=left;verticalAlign=top;spacingLeft=4;spacingRight=4;whiteSpace=wrap;overflow=hidden;rotatable=0;points=[[0,0.5],[1,0.5]];portConstraint=eastwest;" parent="78961159f06e98e8-17" vertex="1">
          <mxGeometry y="104" width="330" height="26" as="geometry" />
        </mxCell>
        <mxCell id="78961159f06e98e8-24" value="+ field: type" style="text;html=1;strokeColor=none;fillColor=none;align=left;verticalAlign=top;spacingLeft=4;spacingRight=4;whiteSpace=wrap;overflow=hidden;rotatable=0;points=[[0,0.5],[1,0.5]];portConstraint=eastwest;" parent="78961159f06e98e8-17" vertex="1">
          <mxGeometry y="130" width="330" height="26" as="geometry" />
        </mxCell>
        <mxCell id="78961159f06e98e8-19" value="" style="line;html=1;strokeWidth=1;fillColor=none;align=left;verticalAlign=middle;spacingTop=-1;spacingLeft=3;spacingRight=3;rotatable=0;labelPosition=right;points=[];portConstraint=eastwest;" parent="78961159f06e98e8-17" vertex="1">
          <mxGeometry y="156" width="330" height="8" as="geometry" />
        </mxCell>
        <mxCell id="78961159f06e98e8-20" value="+ request(url,requestObj,ajax,requestMethod):Promise" style="text;html=1;strokeColor=none;fillColor=none;align=left;verticalAlign=top;spacingLeft=4;spacingRight=4;whiteSpace=wrap;overflow=hidden;rotatable=0;points=[[0,0.5],[1,0.5]];portConstraint=eastwest;" parent="78961159f06e98e8-17" vertex="1">
          <mxGeometry y="164" width="330" height="26" as="geometry" />
        </mxCell>
        <mxCell id="O9mJviDTpXTmQ6rJ3wUI-24" value="+ registerBeforeAjaxRequest(callback)" style="text;html=1;strokeColor=none;fillColor=none;align=left;verticalAlign=top;spacingLeft=4;spacingRight=4;whiteSpace=wrap;overflow=hidden;rotatable=0;points=[[0,0.5],[1,0.5]];portConstraint=eastwest;" parent="78961159f06e98e8-17" vertex="1">
          <mxGeometry y="190" width="330" height="26" as="geometry" />
        </mxCell>
        <mxCell id="O9mJviDTpXTmQ6rJ3wUI-23" value="+ registerAfterAjaxRequest(callback)" style="text;html=1;strokeColor=none;fillColor=none;align=left;verticalAlign=top;spacingLeft=4;spacingRight=4;whiteSpace=wrap;overflow=hidden;rotatable=0;points=[[0,0.5],[1,0.5]];portConstraint=eastwest;" parent="78961159f06e98e8-17" vertex="1">
          <mxGeometry y="216" width="330" height="26" as="geometry" />
        </mxCell>
        <mxCell id="78961159f06e98e8-27" value="+ registerNoDutyErrorApi(method)" style="text;html=1;strokeColor=none;fillColor=none;align=left;verticalAlign=top;spacingLeft=4;spacingRight=4;whiteSpace=wrap;overflow=hidden;rotatable=0;points=[[0,0.5],[1,0.5]];portConstraint=eastwest;" parent="78961159f06e98e8-17" vertex="1">
          <mxGeometry y="242" width="330" height="26" as="geometry" />
        </mxCell>
        <mxCell id="O9mJviDTpXTmQ6rJ3wUI-22" value="+ registerDynamicApiDutyMethods(method)" style="text;html=1;strokeColor=none;fillColor=none;align=left;verticalAlign=top;spacingLeft=4;spacingRight=4;whiteSpace=wrap;overflow=hidden;rotatable=0;points=[[0,0.5],[1,0.5]];portConstraint=eastwest;" parent="78961159f06e98e8-17" vertex="1">
          <mxGeometry y="268" width="330" height="26" as="geometry" />
        </mxCell>
        <mxCell id="O9mJviDTpXTmQ6rJ3wUI-30" value="+ registerStaticApiDutyMethods(method)" style="text;html=1;strokeColor=none;fillColor=none;align=left;verticalAlign=top;spacingLeft=4;spacingRight=4;whiteSpace=wrap;overflow=hidden;rotatable=0;points=[[0,0.5],[1,0.5]];portConstraint=eastwest;" parent="78961159f06e98e8-17" vertex="1">
          <mxGeometry y="294" width="330" height="18" as="geometry" />
        </mxCell>
        <mxCell id="O9mJviDTpXTmQ6rJ3wUI-26" value="+ registerSetStaticApiResponse(callback)" style="text;html=1;strokeColor=none;fillColor=none;align=left;verticalAlign=top;spacingLeft=4;spacingRight=4;whiteSpace=wrap;overflow=hidden;rotatable=0;points=[[0,0.5],[1,0.5]];portConstraint=eastwest;" parent="78961159f06e98e8-17" vertex="1">
          <mxGeometry y="312" width="330" height="26" as="geometry" />
        </mxCell>
        <mxCell id="O9mJviDTpXTmQ6rJ3wUI-29" value="+ registerGetStaticApiResponse(callback)" style="text;html=1;strokeColor=none;fillColor=none;align=left;verticalAlign=top;spacingLeft=4;spacingRight=4;whiteSpace=wrap;overflow=hidden;rotatable=0;points=[[0,0.5],[1,0.5]];portConstraint=eastwest;" parent="78961159f06e98e8-17" vertex="1">
          <mxGeometry y="338" width="330" height="26" as="geometry" />
        </mxCell>
        <mxCell id="O9mJviDTpXTmQ6rJ3wUI-25" value="+ setIsAccessOffline(boolean)" style="text;html=1;strokeColor=none;fillColor=none;align=left;verticalAlign=top;spacingLeft=4;spacingRight=4;whiteSpace=wrap;overflow=hidden;rotatable=0;points=[[0,0.5],[1,0.5]];portConstraint=eastwest;" parent="78961159f06e98e8-17" vertex="1">
          <mxGeometry y="364" width="330" height="26" as="geometry" />
        </mxCell>
        <mxCell id="O9mJviDTpXTmQ6rJ3wUI-27" value="+ setDataIsOffline(boolean)" style="text;html=1;strokeColor=none;fillColor=none;align=left;verticalAlign=top;spacingLeft=4;spacingRight=4;whiteSpace=wrap;overflow=hidden;rotatable=0;points=[[0,0.5],[1,0.5]];portConstraint=eastwest;" parent="78961159f06e98e8-17" vertex="1">
          <mxGeometry y="390" width="330" height="26" as="geometry" />
        </mxCell>
        <mxCell id="O9mJviDTpXTmQ6rJ3wUI-28" value="+ isNotToastErrorInOffline(url)" style="text;html=1;strokeColor=none;fillColor=none;align=left;verticalAlign=top;spacingLeft=4;spacingRight=4;whiteSpace=wrap;overflow=hidden;rotatable=0;points=[[0,0.5],[1,0.5]];portConstraint=eastwest;" parent="78961159f06e98e8-17" vertex="1">
          <mxGeometry y="416" width="330" height="26" as="geometry" />
        </mxCell>
        <mxCell id="78961159f06e98e8-30" value="OfflineSys" style="swimlane;html=1;fontStyle=1;align=center;verticalAlign=top;childLayout=stackLayout;horizontal=1;startSize=26;horizontalStack=0;resizeParent=1;resizeLast=0;collapsible=1;marginBottom=0;swimlaneFillColor=#ffffff;rounded=0;shadow=0;comic=0;labelBackgroundColor=none;strokeWidth=1;fillColor=none;fontFamily=Verdana;fontSize=12" parent="1" vertex="1">
          <mxGeometry x="455" y="140" width="280" height="310" as="geometry" />
        </mxCell>
        <mxCell id="78961159f06e98e8-31" value="+ offline_status" style="text;html=1;strokeColor=none;fillColor=none;align=left;verticalAlign=top;spacingLeft=4;spacingRight=4;whiteSpace=wrap;overflow=hidden;rotatable=0;points=[[0,0.5],[1,0.5]];portConstraint=eastwest;" parent="78961159f06e98e8-30" vertex="1">
          <mxGeometry y="26" width="280" height="26" as="geometry" />
        </mxCell>
        <mxCell id="78961159f06e98e8-32" value="+ get:&amp;nbsp;isOffline" style="text;html=1;strokeColor=none;fillColor=none;align=left;verticalAlign=top;spacingLeft=4;spacingRight=4;whiteSpace=wrap;overflow=hidden;rotatable=0;points=[[0,0.5],[1,0.5]];portConstraint=eastwest;" parent="78961159f06e98e8-30" vertex="1">
          <mxGeometry y="52" width="280" height="26" as="geometry" />
        </mxCell>
        <mxCell id="78961159f06e98e8-38" value="" style="line;html=1;strokeWidth=1;fillColor=none;align=left;verticalAlign=middle;spacingTop=-1;spacingLeft=3;spacingRight=3;rotatable=0;labelPosition=right;points=[];portConstraint=eastwest;" parent="78961159f06e98e8-30" vertex="1">
          <mxGeometry y="78" width="280" height="8" as="geometry" />
        </mxCell>
        <mxCell id="78961159f06e98e8-39" value="+ getInstace(): OfflineSys" style="text;html=1;strokeColor=none;fillColor=none;align=left;verticalAlign=top;spacingLeft=4;spacingRight=4;whiteSpace=wrap;overflow=hidden;rotatable=0;points=[[0,0.5],[1,0.5]];portConstraint=eastwest;" parent="78961159f06e98e8-30" vertex="1">
          <mxGeometry y="86" width="280" height="26" as="geometry" />
        </mxCell>
        <mxCell id="78961159f06e98e8-40" value="+ registerServerApiDuty()" style="text;html=1;strokeColor=none;fillColor=none;align=left;verticalAlign=top;spacingLeft=4;spacingRight=4;whiteSpace=wrap;overflow=hidden;rotatable=0;points=[[0,0.5],[1,0.5]];portConstraint=eastwest;" parent="78961159f06e98e8-30" vertex="1">
          <mxGeometry y="112" width="280" height="26" as="geometry" />
        </mxCell>
        <mxCell id="78961159f06e98e8-42" value="+ setStaticApiResponse(method,response)" style="text;html=1;strokeColor=none;fillColor=none;align=left;verticalAlign=top;spacingLeft=4;spacingRight=4;whiteSpace=wrap;overflow=hidden;rotatable=0;points=[[0,0.5],[1,0.5]];portConstraint=eastwest;" parent="78961159f06e98e8-30" vertex="1">
          <mxGeometry y="138" width="280" height="26" as="geometry" />
        </mxCell>
        <mxCell id="O9mJviDTpXTmQ6rJ3wUI-11" value="+ getStaticApiResponse(method)" style="text;html=1;strokeColor=none;fillColor=none;align=left;verticalAlign=top;spacingLeft=4;spacingRight=4;whiteSpace=wrap;overflow=hidden;rotatable=0;points=[[0,0.5],[1,0.5]];portConstraint=eastwest;" parent="78961159f06e98e8-30" vertex="1">
          <mxGeometry y="164" width="280" height="26" as="geometry" />
        </mxCell>
        <mxCell id="O9mJviDTpXTmQ6rJ3wUI-13" value="+ setDataIsOffline(status)" style="text;html=1;strokeColor=none;fillColor=none;align=left;verticalAlign=top;spacingLeft=4;spacingRight=4;whiteSpace=wrap;overflow=hidden;rotatable=0;points=[[0,0.5],[1,0.5]];portConstraint=eastwest;" parent="78961159f06e98e8-30" vertex="1">
          <mxGeometry y="190" width="280" height="26" as="geometry" />
        </mxCell>
        <mxCell id="O9mJviDTpXTmQ6rJ3wUI-12" value="+ downloadCatcherData()" style="text;html=1;strokeColor=none;fillColor=none;align=left;verticalAlign=top;spacingLeft=4;spacingRight=4;whiteSpace=wrap;overflow=hidden;rotatable=0;points=[[0,0.5],[1,0.5]];portConstraint=eastwest;" parent="78961159f06e98e8-30" vertex="1">
          <mxGeometry y="216" width="280" height="26" as="geometry" />
        </mxCell>
        <mxCell id="O9mJviDTpXTmQ6rJ3wUI-16" value="+ initTransData()" style="text;html=1;strokeColor=none;fillColor=none;align=left;verticalAlign=top;spacingLeft=4;spacingRight=4;whiteSpace=wrap;overflow=hidden;rotatable=0;points=[[0,0.5],[1,0.5]];portConstraint=eastwest;" parent="78961159f06e98e8-30" vertex="1">
          <mxGeometry y="242" width="280" height="26" as="geometry" />
        </mxCell>
        <mxCell id="O9mJviDTpXTmQ6rJ3wUI-15" value="+ setIsOffline()" style="text;html=1;strokeColor=none;fillColor=none;align=left;verticalAlign=top;spacingLeft=4;spacingRight=4;whiteSpace=wrap;overflow=hidden;rotatable=0;points=[[0,0.5],[1,0.5]];portConstraint=eastwest;" parent="78961159f06e98e8-30" vertex="1">
          <mxGeometry y="268" width="280" height="26" as="geometry" />
        </mxCell>
        <mxCell id="78961159f06e98e8-43" value="ServerConfig" style="swimlane;html=1;fontStyle=1;align=center;verticalAlign=top;childLayout=stackLayout;horizontal=1;startSize=26;horizontalStack=0;resizeParent=1;resizeLast=0;collapsible=1;marginBottom=0;swimlaneFillColor=#ffffff;rounded=0;shadow=0;comic=0;labelBackgroundColor=none;strokeWidth=1;fillColor=none;fontFamily=Verdana;fontSize=12" parent="1" vertex="1">
          <mxGeometry x="870" y="10" width="200" height="190" as="geometry" />
        </mxCell>
        <mxCell id="78961159f06e98e8-44" value="+ configType" style="text;html=1;strokeColor=none;fillColor=none;align=left;verticalAlign=top;spacingLeft=4;spacingRight=4;whiteSpace=wrap;overflow=hidden;rotatable=0;points=[[0,0.5],[1,0.5]];portConstraint=eastwest;" parent="78961159f06e98e8-43" vertex="1">
          <mxGeometry y="26" width="200" height="26" as="geometry" />
        </mxCell>
        <mxCell id="78961159f06e98e8-45" value="+ get:configList" style="text;html=1;strokeColor=none;fillColor=none;align=left;verticalAlign=top;spacingLeft=4;spacingRight=4;whiteSpace=wrap;overflow=hidden;rotatable=0;points=[[0,0.5],[1,0.5]];portConstraint=eastwest;" parent="78961159f06e98e8-43" vertex="1">
          <mxGeometry y="52" width="200" height="26" as="geometry" />
        </mxCell>
        <mxCell id="78961159f06e98e8-49" value="+ get:ALL_METHODS" style="text;html=1;strokeColor=none;fillColor=none;align=left;verticalAlign=top;spacingLeft=4;spacingRight=4;whiteSpace=wrap;overflow=hidden;rotatable=0;points=[[0,0.5],[1,0.5]];portConstraint=eastwest;" parent="78961159f06e98e8-43" vertex="1">
          <mxGeometry y="78" width="200" height="26" as="geometry" />
        </mxCell>
        <mxCell id="78961159f06e98e8-50" value="+ get:DYNAMIC_METHODS" style="text;html=1;strokeColor=none;fillColor=none;align=left;verticalAlign=top;spacingLeft=4;spacingRight=4;whiteSpace=wrap;overflow=hidden;rotatable=0;points=[[0,0.5],[1,0.5]];portConstraint=eastwest;" parent="78961159f06e98e8-43" vertex="1">
          <mxGeometry y="104" width="200" height="26" as="geometry" />
        </mxCell>
        <mxCell id="O9mJviDTpXTmQ6rJ3wUI-4" value="......" style="text;html=1;strokeColor=none;fillColor=none;align=left;verticalAlign=top;spacingLeft=4;spacingRight=4;whiteSpace=wrap;overflow=hidden;rotatable=0;points=[[0,0.5],[1,0.5]];portConstraint=eastwest;" parent="78961159f06e98e8-43" vertex="1">
          <mxGeometry y="130" width="200" height="26" as="geometry" />
        </mxCell>
        <mxCell id="78961159f06e98e8-51" value="" style="line;html=1;strokeWidth=1;fillColor=none;align=left;verticalAlign=middle;spacingTop=-1;spacingLeft=3;spacingRight=3;rotatable=0;labelPosition=right;points=[];portConstraint=eastwest;" parent="78961159f06e98e8-43" vertex="1">
          <mxGeometry y="156" width="200" height="24" as="geometry" />
        </mxCell>
        <mxCell id="O9mJviDTpXTmQ6rJ3wUI-47" style="edgeStyle=orthogonalEdgeStyle;rounded=0;orthogonalLoop=1;jettySize=auto;html=1;" parent="1" source="78961159f06e98e8-95" target="78961159f06e98e8-109" edge="1">
          <mxGeometry relative="1" as="geometry">
            <Array as="points">
              <mxPoint x="985" y="390" />
              <mxPoint x="890" y="390" />
              <mxPoint x="890" y="310" />
            </Array>
          </mxGeometry>
        </mxCell>
        <mxCell id="78961159f06e98e8-95" value="moduleConfig" style="swimlane;html=1;fontStyle=1;align=center;verticalAlign=top;childLayout=stackLayout;horizontal=1;startSize=26;horizontalStack=0;resizeParent=1;resizeLast=0;collapsible=1;marginBottom=0;swimlaneFillColor=#ffffff;rounded=0;shadow=0;comic=0;labelBackgroundColor=none;strokeWidth=1;fillColor=none;fontFamily=Verdana;fontSize=12" parent="1" vertex="1">
          <mxGeometry x="890" y="412" width="190" height="168" as="geometry" />
        </mxCell>
        <mxCell id="78961159f06e98e8-96" value="+&amp;nbsp;dataBaseStruct" style="text;html=1;strokeColor=none;fillColor=none;align=left;verticalAlign=top;spacingLeft=4;spacingRight=4;whiteSpace=wrap;overflow=hidden;rotatable=0;points=[[0,0.5],[1,0.5]];portConstraint=eastwest;" parent="78961159f06e98e8-95" vertex="1">
          <mxGeometry y="26" width="190" height="26" as="geometry" />
        </mxCell>
        <mxCell id="78961159f06e98e8-97" value="+ get:methods" style="text;html=1;strokeColor=none;fillColor=none;align=left;verticalAlign=top;spacingLeft=4;spacingRight=4;whiteSpace=wrap;overflow=hidden;rotatable=0;points=[[0,0.5],[1,0.5]];portConstraint=eastwest;" parent="78961159f06e98e8-95" vertex="1">
          <mxGeometry y="52" width="190" height="26" as="geometry" />
        </mxCell>
        <mxCell id="78961159f06e98e8-103" value="" style="line;html=1;strokeWidth=1;fillColor=none;align=left;verticalAlign=middle;spacingTop=-1;spacingLeft=3;spacingRight=3;rotatable=0;labelPosition=right;points=[];portConstraint=eastwest;" parent="78961159f06e98e8-95" vertex="1">
          <mxGeometry y="78" width="190" height="8" as="geometry" />
        </mxCell>
        <mxCell id="78961159f06e98e8-104" value="+ initBaseByData: data" style="text;html=1;strokeColor=none;fillColor=none;align=left;verticalAlign=top;spacingLeft=4;spacingRight=4;whiteSpace=wrap;overflow=hidden;rotatable=0;points=[[0,0.5],[1,0.5]];portConstraint=eastwest;" parent="78961159f06e98e8-95" vertex="1">
          <mxGeometry y="86" width="190" height="26" as="geometry" />
        </mxCell>
        <mxCell id="O9mJviDTpXTmQ6rJ3wUI-8" value="+ getInstance: moduleConfig" style="text;html=1;strokeColor=none;fillColor=none;align=left;verticalAlign=top;spacingLeft=4;spacingRight=4;whiteSpace=wrap;overflow=hidden;rotatable=0;points=[[0,0.5],[1,0.5]];portConstraint=eastwest;" parent="78961159f06e98e8-95" vertex="1">
          <mxGeometry y="112" width="190" height="26" as="geometry" />
        </mxCell>
        <mxCell id="O9mJviDTpXTmQ6rJ3wUI-49" style="edgeStyle=orthogonalEdgeStyle;rounded=0;orthogonalLoop=1;jettySize=auto;html=1;entryX=0;entryY=0.5;entryDx=0;entryDy=0;" parent="1" source="78961159f06e98e8-108" target="78961159f06e98e8-44" edge="1">
          <mxGeometry relative="1" as="geometry">
            <Array as="points">
              <mxPoint x="990" y="240" />
              <mxPoint x="850" y="240" />
              <mxPoint x="850" y="49" />
            </Array>
          </mxGeometry>
        </mxCell>
        <mxCell id="78961159f06e98e8-108" value="TypeConfig" style="swimlane;html=1;fontStyle=1;align=center;verticalAlign=top;childLayout=stackLayout;horizontal=1;startSize=26;horizontalStack=0;resizeParent=1;resizeLast=0;collapsible=1;marginBottom=0;swimlaneFillColor=#ffffff;rounded=0;shadow=0;comic=0;labelBackgroundColor=none;strokeWidth=1;fillColor=none;fontFamily=Verdana;fontSize=12" parent="1" vertex="1">
          <mxGeometry x="910" y="271" width="160" height="108" as="geometry" />
        </mxCell>
        <mxCell id="78961159f06e98e8-109" value="+ configList" style="text;html=1;strokeColor=none;fillColor=none;align=left;verticalAlign=top;spacingLeft=4;spacingRight=4;whiteSpace=wrap;overflow=hidden;rotatable=0;points=[[0,0.5],[1,0.5]];portConstraint=eastwest;" parent="78961159f06e98e8-108" vertex="1">
          <mxGeometry y="26" width="160" height="26" as="geometry" />
        </mxCell>
        <mxCell id="78961159f06e98e8-110" value="+ get:TYPE_METHODS" style="text;html=1;strokeColor=none;fillColor=none;align=left;verticalAlign=top;spacingLeft=4;spacingRight=4;whiteSpace=wrap;overflow=hidden;rotatable=0;points=[[0,0.5],[1,0.5]];portConstraint=eastwest;" parent="78961159f06e98e8-108" vertex="1">
          <mxGeometry y="52" width="160" height="26" as="geometry" />
        </mxCell>
        <mxCell id="78961159f06e98e8-116" value="" style="line;html=1;strokeWidth=1;fillColor=none;align=left;verticalAlign=middle;spacingTop=-1;spacingLeft=3;spacingRight=3;rotatable=0;labelPosition=right;points=[];portConstraint=eastwest;" parent="78961159f06e98e8-108" vertex="1">
          <mxGeometry y="78" width="160" height="8" as="geometry" />
        </mxCell>
        <mxCell id="O9mJviDTpXTmQ6rJ3wUI-34" style="edgeStyle=orthogonalEdgeStyle;rounded=0;orthogonalLoop=1;jettySize=auto;html=1;entryX=0.286;entryY=0;entryDx=0;entryDy=0;entryPerimeter=0;" parent="1" source="O9mJviDTpXTmQ6rJ3wUI-24" target="78961159f06e98e8-30" edge="1">
          <mxGeometry relative="1" as="geometry" />
        </mxCell>
        <mxCell id="O9mJviDTpXTmQ6rJ3wUI-35" style="edgeStyle=orthogonalEdgeStyle;rounded=0;orthogonalLoop=1;jettySize=auto;html=1;entryX=0.382;entryY=-0.003;entryDx=0;entryDy=0;entryPerimeter=0;" parent="1" source="O9mJviDTpXTmQ6rJ3wUI-23" target="78961159f06e98e8-30" edge="1">
          <mxGeometry relative="1" as="geometry" />
        </mxCell>
        <mxCell id="O9mJviDTpXTmQ6rJ3wUI-36" style="edgeStyle=orthogonalEdgeStyle;rounded=0;orthogonalLoop=1;jettySize=auto;html=1;" parent="1" source="78961159f06e98e8-27" edge="1">
          <mxGeometry relative="1" as="geometry">
            <mxPoint x="588" y="137" as="targetPoint" />
            <Array as="points">
              <mxPoint x="420" y="335" />
              <mxPoint x="420" y="120" />
              <mxPoint x="588" y="120" />
            </Array>
          </mxGeometry>
        </mxCell>
        <mxCell id="O9mJviDTpXTmQ6rJ3wUI-38" style="edgeStyle=orthogonalEdgeStyle;rounded=0;orthogonalLoop=1;jettySize=auto;html=1;entryX=0.557;entryY=0;entryDx=0;entryDy=0;entryPerimeter=0;" parent="1" source="O9mJviDTpXTmQ6rJ3wUI-22" target="78961159f06e98e8-30" edge="1">
          <mxGeometry relative="1" as="geometry">
            <Array as="points">
              <mxPoint x="420" y="361" />
              <mxPoint x="420" y="120" />
              <mxPoint x="611" y="120" />
            </Array>
          </mxGeometry>
        </mxCell>
        <mxCell id="O9mJviDTpXTmQ6rJ3wUI-40" style="edgeStyle=orthogonalEdgeStyle;rounded=0;orthogonalLoop=1;jettySize=auto;html=1;entryX=0.643;entryY=0;entryDx=0;entryDy=0;entryPerimeter=0;" parent="1" source="O9mJviDTpXTmQ6rJ3wUI-30" target="78961159f06e98e8-30" edge="1">
          <mxGeometry relative="1" as="geometry" />
        </mxCell>
        <mxCell id="O9mJviDTpXTmQ6rJ3wUI-41" style="edgeStyle=orthogonalEdgeStyle;rounded=0;orthogonalLoop=1;jettySize=auto;html=1;entryX=0.75;entryY=0;entryDx=0;entryDy=0;" parent="1" source="O9mJviDTpXTmQ6rJ3wUI-26" target="78961159f06e98e8-30" edge="1">
          <mxGeometry relative="1" as="geometry" />
        </mxCell>
        <mxCell id="O9mJviDTpXTmQ6rJ3wUI-42" style="edgeStyle=orthogonalEdgeStyle;rounded=0;orthogonalLoop=1;jettySize=auto;html=1;entryX=0.85;entryY=-0.003;entryDx=0;entryDy=0;entryPerimeter=0;" parent="1" source="O9mJviDTpXTmQ6rJ3wUI-29" target="78961159f06e98e8-30" edge="1">
          <mxGeometry relative="1" as="geometry" />
        </mxCell>
        <mxCell id="O9mJviDTpXTmQ6rJ3wUI-43" style="edgeStyle=orthogonalEdgeStyle;rounded=0;orthogonalLoop=1;jettySize=auto;html=1;entryX=0.918;entryY=0.003;entryDx=0;entryDy=0;entryPerimeter=0;" parent="1" source="O9mJviDTpXTmQ6rJ3wUI-25" target="78961159f06e98e8-30" edge="1">
          <mxGeometry relative="1" as="geometry" />
        </mxCell>
        <mxCell id="O9mJviDTpXTmQ6rJ3wUI-44" style="edgeStyle=orthogonalEdgeStyle;rounded=0;orthogonalLoop=1;jettySize=auto;html=1;entryX=0.218;entryY=0;entryDx=0;entryDy=0;entryPerimeter=0;" parent="1" source="O9mJviDTpXTmQ6rJ3wUI-27" target="78961159f06e98e8-30" edge="1">
          <mxGeometry relative="1" as="geometry">
            <Array as="points">
              <mxPoint x="890" y="483" />
              <mxPoint x="890" y="120" />
              <mxPoint x="516" y="120" />
            </Array>
          </mxGeometry>
        </mxCell>
        <mxCell id="O9mJviDTpXTmQ6rJ3wUI-51" style="edgeStyle=orthogonalEdgeStyle;rounded=0;orthogonalLoop=1;jettySize=auto;html=1;entryX=1;entryY=0.5;entryDx=0;entryDy=0;" parent="1" source="78961159f06e98e8-50" target="78961159f06e98e8-40" edge="1">
          <mxGeometry relative="1" as="geometry" />
        </mxCell>
      </root>
    </mxGraphModel>
  </diagram>
  <diagram id="UTbQzif00bNFKrltUzsM" name="Halaman-2">
    <mxGraphModel dx="1426" dy="794" grid="1" gridSize="10" guides="1" tooltips="1" connect="1" arrows="1" fold="1" page="1" pageScale="1" pageWidth="827" pageHeight="1169" math="0" shadow="0">
      <root>
        <mxCell id="L2mmnC9NN9h3gjrGADmq-0" />
        <mxCell id="L2mmnC9NN9h3gjrGADmq-1" parent="L2mmnC9NN9h3gjrGADmq-0" />
        <mxCell id="NFi4Le9Q8Fj7yvYf3liV-0" value="ServerApi" style="shape=umlLifeline;perimeter=lifelinePerimeter;whiteSpace=wrap;html=1;container=1;collapsible=0;recursiveResize=0;outlineConnect=0;rounded=1;shadow=0;comic=0;labelBackgroundColor=none;strokeWidth=1;fontFamily=Verdana;fontSize=12;align=center;" vertex="1" parent="L2mmnC9NN9h3gjrGADmq-1">
          <mxGeometry x="520" y="80" width="100" height="580" as="geometry" />
        </mxCell>
        <mxCell id="NFi4Le9Q8Fj7yvYf3liV-1" value="" style="html=1;points=[];perimeter=orthogonalPerimeter;" vertex="1" parent="NFi4Le9Q8Fj7yvYf3liV-0">
          <mxGeometry x="45" y="100" width="10" height="20" as="geometry" />
        </mxCell>
        <mxCell id="NFi4Le9Q8Fj7yvYf3liV-2" value="" style="html=1;points=[];perimeter=orthogonalPerimeter;" vertex="1" parent="NFi4Le9Q8Fj7yvYf3liV-0">
          <mxGeometry x="45" y="324" width="10" height="110" as="geometry" />
        </mxCell>
        <mxCell id="NFi4Le9Q8Fj7yvYf3liV-3" value="" style="html=1;points=[];perimeter=orthogonalPerimeter;" vertex="1" parent="NFi4Le9Q8Fj7yvYf3liV-0">
          <mxGeometry x="45" y="242" width="10" height="28" as="geometry" />
        </mxCell>
        <mxCell id="NFi4Le9Q8Fj7yvYf3liV-4" value="" style="html=1;points=[];perimeter=orthogonalPerimeter;" vertex="1" parent="NFi4Le9Q8Fj7yvYf3liV-0">
          <mxGeometry x="45" y="496" width="10" height="50" as="geometry" />
        </mxCell>
        <mxCell id="NFi4Le9Q8Fj7yvYf3liV-5" value="offlineSys" style="shape=umlLifeline;perimeter=lifelinePerimeter;whiteSpace=wrap;html=1;container=1;collapsible=0;recursiveResize=0;outlineConnect=0;rounded=1;shadow=0;comic=0;labelBackgroundColor=none;strokeWidth=1;fontFamily=Verdana;fontSize=12;align=center;" vertex="1" parent="L2mmnC9NN9h3gjrGADmq-1">
          <mxGeometry x="240" y="80" width="100" height="580" as="geometry" />
        </mxCell>
        <mxCell id="NFi4Le9Q8Fj7yvYf3liV-6" value="" style="html=1;points=[];perimeter=orthogonalPerimeter;" vertex="1" parent="NFi4Le9Q8Fj7yvYf3liV-5">
          <mxGeometry x="45" y="50" width="10" height="90" as="geometry" />
        </mxCell>
        <mxCell id="NFi4Le9Q8Fj7yvYf3liV-7" value="" style="html=1;points=[];perimeter=orthogonalPerimeter;" vertex="1" parent="NFi4Le9Q8Fj7yvYf3liV-5">
          <mxGeometry x="45" y="167" width="10" height="113" as="geometry" />
        </mxCell>
        <mxCell id="NFi4Le9Q8Fj7yvYf3liV-8" value="下发数据" style="html=1;verticalAlign=bottom;endArrow=block;entryX=0;entryY=0;" edge="1" parent="NFi4Le9Q8Fj7yvYf3liV-5">
          <mxGeometry relative="1" as="geometry">
            <mxPoint x="-90" y="172" as="sourcePoint" />
            <mxPoint x="45" y="172" as="targetPoint" />
          </mxGeometry>
        </mxCell>
        <mxCell id="NFi4Le9Q8Fj7yvYf3liV-9" value="return" style="html=1;verticalAlign=bottom;endArrow=open;dashed=1;endSize=8;exitX=0;exitY=0.95;" edge="1" parent="NFi4Le9Q8Fj7yvYf3liV-5">
          <mxGeometry relative="1" as="geometry">
            <mxPoint x="-90" y="277" as="targetPoint" />
            <mxPoint x="45" y="277" as="sourcePoint" />
          </mxGeometry>
        </mxCell>
        <mxCell id="NFi4Le9Q8Fj7yvYf3liV-10" value="" style="html=1;points=[];perimeter=orthogonalPerimeter;" vertex="1" parent="NFi4Le9Q8Fj7yvYf3liV-5">
          <mxGeometry x="45" y="487" width="10" height="69" as="geometry" />
        </mxCell>
        <mxCell id="NFi4Le9Q8Fj7yvYf3liV-11" value="更改在离线状态" style="html=1;verticalAlign=bottom;startArrow=oval;endArrow=block;startSize=8;" edge="1" parent="NFi4Le9Q8Fj7yvYf3liV-5" target="NFi4Le9Q8Fj7yvYf3liV-10">
          <mxGeometry relative="1" as="geometry">
            <mxPoint x="-90" y="487" as="sourcePoint" />
          </mxGeometry>
        </mxCell>
        <mxCell id="NFi4Le9Q8Fj7yvYf3liV-12" value="Service" style="shape=umlLifeline;perimeter=lifelinePerimeter;whiteSpace=wrap;html=1;container=1;collapsible=0;recursiveResize=0;outlineConnect=0;rounded=1;shadow=0;comic=0;labelBackgroundColor=none;strokeWidth=1;fontFamily=Verdana;fontSize=12;align=center;" vertex="1" parent="L2mmnC9NN9h3gjrGADmq-1">
          <mxGeometry x="680" y="80" width="100" height="580" as="geometry" />
        </mxCell>
        <mxCell id="NFi4Le9Q8Fj7yvYf3liV-13" value="" style="html=1;points=[];perimeter=orthogonalPerimeter;" vertex="1" parent="NFi4Le9Q8Fj7yvYf3liV-12">
          <mxGeometry x="45" y="334" width="10" height="40" as="geometry" />
        </mxCell>
        <mxCell id="NFi4Le9Q8Fj7yvYf3liV-14" value="dataBase" style="shape=umlLifeline;perimeter=lifelinePerimeter;whiteSpace=wrap;html=1;container=1;collapsible=0;recursiveResize=0;outlineConnect=0;rounded=1;shadow=0;comic=0;labelBackgroundColor=none;strokeWidth=1;fontFamily=Verdana;fontSize=12;align=center;" vertex="1" parent="L2mmnC9NN9h3gjrGADmq-1">
          <mxGeometry x="840" y="80" width="100" height="580" as="geometry" />
        </mxCell>
        <mxCell id="NFi4Le9Q8Fj7yvYf3liV-15" value="" style="html=1;points=[];perimeter=orthogonalPerimeter;" vertex="1" parent="NFi4Le9Q8Fj7yvYf3liV-14">
          <mxGeometry x="45" y="60" width="10" height="20" as="geometry" />
        </mxCell>
        <mxCell id="NFi4Le9Q8Fj7yvYf3liV-16" value="" style="html=1;points=[];perimeter=orthogonalPerimeter;" vertex="1" parent="NFi4Le9Q8Fj7yvYf3liV-14">
          <mxGeometry x="45" y="192" width="10" height="20" as="geometry" />
        </mxCell>
        <mxCell id="NFi4Le9Q8Fj7yvYf3liV-17" value="" style="html=1;points=[];perimeter=orthogonalPerimeter;" vertex="1" parent="NFi4Le9Q8Fj7yvYf3liV-14">
          <mxGeometry x="45" y="339" width="10" height="25" as="geometry" />
        </mxCell>
        <mxCell id="NFi4Le9Q8Fj7yvYf3liV-18" value="查库操作" style="html=1;verticalAlign=bottom;endArrow=block;entryX=0;entryY=0;" edge="1" parent="NFi4Le9Q8Fj7yvYf3liV-14" target="NFi4Le9Q8Fj7yvYf3liV-17">
          <mxGeometry relative="1" as="geometry">
            <mxPoint x="-100" y="339" as="sourcePoint" />
          </mxGeometry>
        </mxCell>
        <mxCell id="NFi4Le9Q8Fj7yvYf3liV-19" value="View" style="shape=umlLifeline;perimeter=lifelinePerimeter;whiteSpace=wrap;html=1;container=1;collapsible=0;recursiveResize=0;outlineConnect=0;rounded=1;shadow=0;comic=0;labelBackgroundColor=none;strokeWidth=1;fontFamily=Verdana;fontSize=12;align=center;" vertex="1" parent="L2mmnC9NN9h3gjrGADmq-1">
          <mxGeometry x="100" y="80" width="100" height="580" as="geometry" />
        </mxCell>
        <mxCell id="NFi4Le9Q8Fj7yvYf3liV-20" value="" style="html=1;points=[];perimeter=orthogonalPerimeter;" vertex="1" parent="NFi4Le9Q8Fj7yvYf3liV-19">
          <mxGeometry x="45" y="50" width="10" height="510" as="geometry" />
        </mxCell>
        <mxCell id="NFi4Le9Q8Fj7yvYf3liV-21" value="初始化" style="html=1;verticalAlign=bottom;endArrow=block;entryX=0;entryY=0;" edge="1" parent="L2mmnC9NN9h3gjrGADmq-1" source="NFi4Le9Q8Fj7yvYf3liV-19" target="NFi4Le9Q8Fj7yvYf3liV-6">
          <mxGeometry relative="1" as="geometry">
            <mxPoint x="515" y="130" as="sourcePoint" />
          </mxGeometry>
        </mxCell>
        <mxCell id="NFi4Le9Q8Fj7yvYf3liV-22" value="return" style="html=1;verticalAlign=bottom;endArrow=open;dashed=1;endSize=8;exitX=0;exitY=0.95;" edge="1" parent="L2mmnC9NN9h3gjrGADmq-1" source="NFi4Le9Q8Fj7yvYf3liV-6" target="NFi4Le9Q8Fj7yvYf3liV-19">
          <mxGeometry relative="1" as="geometry">
            <mxPoint x="160" y="206" as="targetPoint" />
            <Array as="points" />
          </mxGeometry>
        </mxCell>
        <mxCell id="NFi4Le9Q8Fj7yvYf3liV-23" value="初始化数据库" style="html=1;verticalAlign=bottom;endArrow=block;entryX=0;entryY=0;" edge="1" parent="L2mmnC9NN9h3gjrGADmq-1" source="NFi4Le9Q8Fj7yvYf3liV-5" target="NFi4Le9Q8Fj7yvYf3liV-15">
          <mxGeometry relative="1" as="geometry">
            <mxPoint x="935" y="140" as="sourcePoint" />
          </mxGeometry>
        </mxCell>
        <mxCell id="NFi4Le9Q8Fj7yvYf3liV-24" value="return" style="html=1;verticalAlign=bottom;endArrow=open;dashed=1;endSize=8;exitX=0;exitY=0.95;" edge="1" parent="L2mmnC9NN9h3gjrGADmq-1" source="NFi4Le9Q8Fj7yvYf3liV-15">
          <mxGeometry relative="1" as="geometry">
            <mxPoint x="290" y="159" as="targetPoint" />
          </mxGeometry>
        </mxCell>
        <mxCell id="NFi4Le9Q8Fj7yvYf3liV-25" value="return" style="html=1;verticalAlign=bottom;endArrow=open;dashed=1;endSize=8;exitX=0;exitY=0.95;" edge="1" parent="L2mmnC9NN9h3gjrGADmq-1" source="NFi4Le9Q8Fj7yvYf3liV-1" target="NFi4Le9Q8Fj7yvYf3liV-5">
          <mxGeometry relative="1" as="geometry">
            <mxPoint x="495" y="246" as="targetPoint" />
          </mxGeometry>
        </mxCell>
        <mxCell id="NFi4Le9Q8Fj7yvYf3liV-26" value="ajax" style="shape=umlLifeline;perimeter=lifelinePerimeter;whiteSpace=wrap;html=1;container=1;collapsible=0;recursiveResize=0;outlineConnect=0;rounded=1;shadow=0;comic=0;labelBackgroundColor=none;strokeWidth=1;fontFamily=Verdana;fontSize=12;align=center;" vertex="1" parent="L2mmnC9NN9h3gjrGADmq-1">
          <mxGeometry x="370" y="80" width="100" height="580" as="geometry" />
        </mxCell>
        <mxCell id="NFi4Le9Q8Fj7yvYf3liV-27" value="" style="html=1;points=[];perimeter=orthogonalPerimeter;" vertex="1" parent="NFi4Le9Q8Fj7yvYf3liV-26">
          <mxGeometry x="45" y="182" width="10" height="40" as="geometry" />
        </mxCell>
        <mxCell id="NFi4Le9Q8Fj7yvYf3liV-28" value="" style="html=1;points=[];perimeter=orthogonalPerimeter;" vertex="1" parent="NFi4Le9Q8Fj7yvYf3liV-26">
          <mxGeometry x="45" y="314" width="10" height="140" as="geometry" />
        </mxCell>
        <mxCell id="NFi4Le9Q8Fj7yvYf3liV-29" value="发起请求" style="html=1;verticalAlign=bottom;endArrow=block;entryX=0;entryY=0;" edge="1" parent="NFi4Le9Q8Fj7yvYf3liV-26" target="NFi4Le9Q8Fj7yvYf3liV-28">
          <mxGeometry relative="1" as="geometry">
            <mxPoint x="-210" y="314" as="sourcePoint" />
          </mxGeometry>
        </mxCell>
        <mxCell id="NFi4Le9Q8Fj7yvYf3liV-30" value="在线直接发送网络请求返回" style="edgeStyle=orthogonalEdgeStyle;rounded=0;orthogonalLoop=1;jettySize=auto;html=1;exitX=1;exitY=0.2;exitDx=0;exitDy=0;exitPerimeter=0;" edge="1" parent="NFi4Le9Q8Fj7yvYf3liV-26" source="NFi4Le9Q8Fj7yvYf3liV-28" target="NFi4Le9Q8Fj7yvYf3liV-28">
          <mxGeometry relative="1" as="geometry">
            <Array as="points">
              <mxPoint x="75" y="330" />
              <mxPoint x="75" y="394" />
            </Array>
          </mxGeometry>
        </mxCell>
        <mxCell id="NFi4Le9Q8Fj7yvYf3liV-31" value="注入依赖" style="html=1;verticalAlign=bottom;endArrow=block;entryX=0;entryY=0;" edge="1" parent="L2mmnC9NN9h3gjrGADmq-1" source="NFi4Le9Q8Fj7yvYf3liV-5" target="NFi4Le9Q8Fj7yvYf3liV-1">
          <mxGeometry relative="1" as="geometry">
            <mxPoint x="440" y="180" as="sourcePoint" />
          </mxGeometry>
        </mxCell>
        <mxCell id="NFi4Le9Q8Fj7yvYf3liV-32" value="网络下载BO数据" style="html=1;verticalAlign=bottom;endArrow=block;entryX=0;entryY=0;" edge="1" parent="L2mmnC9NN9h3gjrGADmq-1" target="NFi4Le9Q8Fj7yvYf3liV-27">
          <mxGeometry relative="1" as="geometry">
            <mxPoint x="295" y="262" as="sourcePoint" />
          </mxGeometry>
        </mxCell>
        <mxCell id="NFi4Le9Q8Fj7yvYf3liV-33" value="return" style="html=1;verticalAlign=bottom;endArrow=open;dashed=1;endSize=8;exitX=0;exitY=0.95;" edge="1" parent="L2mmnC9NN9h3gjrGADmq-1" source="NFi4Le9Q8Fj7yvYf3liV-27">
          <mxGeometry relative="1" as="geometry">
            <mxPoint x="289.5" y="300" as="targetPoint" />
          </mxGeometry>
        </mxCell>
        <mxCell id="NFi4Le9Q8Fj7yvYf3liV-34" value="分表存库" style="html=1;verticalAlign=bottom;endArrow=block;entryX=0;entryY=0;exitX=0;exitY=0.25;exitDx=0;exitDy=0;exitPerimeter=0;" edge="1" parent="L2mmnC9NN9h3gjrGADmq-1" source="NFi4Le9Q8Fj7yvYf3liV-27" target="NFi4Le9Q8Fj7yvYf3liV-16">
          <mxGeometry relative="1" as="geometry">
            <mxPoint x="935" y="242" as="sourcePoint" />
          </mxGeometry>
        </mxCell>
        <mxCell id="NFi4Le9Q8Fj7yvYf3liV-35" value="return" style="html=1;verticalAlign=bottom;endArrow=open;dashed=1;endSize=8;" edge="1" parent="L2mmnC9NN9h3gjrGADmq-1" source="NFi4Le9Q8Fj7yvYf3liV-16">
          <mxGeometry relative="1" as="geometry">
            <mxPoint x="419.5" y="292" as="targetPoint" />
            <Array as="points">
              <mxPoint x="880" y="292" />
            </Array>
          </mxGeometry>
        </mxCell>
        <mxCell id="NFi4Le9Q8Fj7yvYf3liV-36" value="离线转发到Server" style="html=1;verticalAlign=bottom;endArrow=block;entryX=0;entryY=0;" edge="1" parent="L2mmnC9NN9h3gjrGADmq-1" source="NFi4Le9Q8Fj7yvYf3liV-28" target="NFi4Le9Q8Fj7yvYf3liV-2">
          <mxGeometry relative="1" as="geometry">
            <mxPoint x="430" y="404" as="sourcePoint" />
          </mxGeometry>
        </mxCell>
        <mxCell id="NFi4Le9Q8Fj7yvYf3liV-37" value="动态接口转发到业务层" style="html=1;verticalAlign=bottom;endArrow=block;entryX=0;entryY=0;" edge="1" parent="L2mmnC9NN9h3gjrGADmq-1" target="NFi4Le9Q8Fj7yvYf3liV-13">
          <mxGeometry relative="1" as="geometry">
            <mxPoint x="580" y="414" as="sourcePoint" />
          </mxGeometry>
        </mxCell>
        <mxCell id="NFi4Le9Q8Fj7yvYf3liV-38" value="查库完成" style="html=1;verticalAlign=bottom;endArrow=open;dashed=1;endSize=8;exitX=0;exitY=0.95;" edge="1" parent="L2mmnC9NN9h3gjrGADmq-1" source="NFi4Le9Q8Fj7yvYf3liV-17">
          <mxGeometry relative="1" as="geometry">
            <mxPoint x="729.5" y="442.75" as="targetPoint" />
          </mxGeometry>
        </mxCell>
        <mxCell id="NFi4Le9Q8Fj7yvYf3liV-39" value="业务处理完毕" style="html=1;verticalAlign=bottom;endArrow=open;dashed=1;endSize=8;exitX=0;exitY=0.95;" edge="1" parent="L2mmnC9NN9h3gjrGADmq-1" source="NFi4Le9Q8Fj7yvYf3liV-13">
          <mxGeometry relative="1" as="geometry">
            <mxPoint x="569.5" y="452" as="targetPoint" />
          </mxGeometry>
        </mxCell>
        <mxCell id="NFi4Le9Q8Fj7yvYf3liV-40" value="静态接口直接查库" style="html=1;verticalAlign=bottom;endArrow=block;entryX=0;entryY=0;" edge="1" parent="L2mmnC9NN9h3gjrGADmq-1" target="NFi4Le9Q8Fj7yvYf3liV-41">
          <mxGeometry relative="1" as="geometry">
            <mxPoint x="569.5" y="474" as="sourcePoint" />
          </mxGeometry>
        </mxCell>
        <mxCell id="NFi4Le9Q8Fj7yvYf3liV-41" value="" style="html=1;points=[];perimeter=orthogonalPerimeter;" vertex="1" parent="L2mmnC9NN9h3gjrGADmq-1">
          <mxGeometry x="885" y="474" width="10" height="30" as="geometry" />
        </mxCell>
        <mxCell id="NFi4Le9Q8Fj7yvYf3liV-42" value="查库完成" style="html=1;verticalAlign=bottom;endArrow=open;dashed=1;endSize=8;exitX=0;exitY=0.95;entryX=0.9;entryY=0.891;entryDx=0;entryDy=0;entryPerimeter=0;" edge="1" parent="L2mmnC9NN9h3gjrGADmq-1" source="NFi4Le9Q8Fj7yvYf3liV-41" target="NFi4Le9Q8Fj7yvYf3liV-2">
          <mxGeometry relative="1" as="geometry">
            <mxPoint x="580" y="503" as="targetPoint" />
          </mxGeometry>
        </mxCell>
        <mxCell id="NFi4Le9Q8Fj7yvYf3liV-43" value="模拟接口返回" style="html=1;verticalAlign=bottom;endArrow=open;dashed=1;endSize=8;exitX=0;exitY=0.95;" edge="1" parent="L2mmnC9NN9h3gjrGADmq-1" source="NFi4Le9Q8Fj7yvYf3liV-28">
          <mxGeometry relative="1" as="geometry">
            <mxPoint x="149.5" y="527" as="targetPoint" />
          </mxGeometry>
        </mxCell>
        <mxCell id="NFi4Le9Q8Fj7yvYf3liV-44" value="转发处理完成" style="html=1;verticalAlign=bottom;endArrow=open;dashed=1;endSize=8;exitX=0;exitY=0.95;" edge="1" parent="L2mmnC9NN9h3gjrGADmq-1" source="NFi4Le9Q8Fj7yvYf3liV-2">
          <mxGeometry relative="1" as="geometry">
            <mxPoint x="420" y="509" as="targetPoint" />
          </mxGeometry>
        </mxCell>
        <mxCell id="NFi4Le9Q8Fj7yvYf3liV-45" value="更改数据准备完成状态" style="html=1;verticalAlign=bottom;endArrow=block;entryX=0;entryY=0;" edge="1" parent="L2mmnC9NN9h3gjrGADmq-1" target="NFi4Le9Q8Fj7yvYf3liV-3">
          <mxGeometry relative="1" as="geometry">
            <mxPoint x="295" y="322" as="sourcePoint" />
            <Array as="points">
              <mxPoint x="390" y="322" />
            </Array>
          </mxGeometry>
        </mxCell>
        <mxCell id="NFi4Le9Q8Fj7yvYf3liV-46" value="return" style="html=1;verticalAlign=bottom;endArrow=open;dashed=1;endSize=8;exitX=0;exitY=0.95;" edge="1" parent="L2mmnC9NN9h3gjrGADmq-1" source="NFi4Le9Q8Fj7yvYf3liV-3" target="NFi4Le9Q8Fj7yvYf3liV-5">
          <mxGeometry relative="1" as="geometry">
            <mxPoint x="295" y="340" as="targetPoint" />
            <Array as="points">
              <mxPoint x="430" y="350" />
            </Array>
          </mxGeometry>
        </mxCell>
        <mxCell id="NFi4Le9Q8Fj7yvYf3liV-47" value="return" style="html=1;verticalAlign=bottom;endArrow=open;dashed=1;endSize=8;" edge="1" parent="L2mmnC9NN9h3gjrGADmq-1">
          <mxGeometry relative="1" as="geometry">
            <mxPoint x="660" y="425" as="sourcePoint" />
            <mxPoint x="580" y="425" as="targetPoint" />
          </mxGeometry>
        </mxCell>
        <mxCell id="NFi4Le9Q8Fj7yvYf3liV-48" value="return" style="html=1;verticalAlign=bottom;endArrow=open;dashed=1;endSize=8;" edge="1" parent="L2mmnC9NN9h3gjrGADmq-1">
          <mxGeometry relative="1" as="geometry">
            <mxPoint x="289.5" y="636" as="sourcePoint" />
            <mxPoint x="149.5" y="636" as="targetPoint" />
            <Array as="points">
              <mxPoint x="220" y="636" />
            </Array>
          </mxGeometry>
        </mxCell>
        <mxCell id="NFi4Le9Q8Fj7yvYf3liV-49" value="更改ServerApi状态" style="html=1;verticalAlign=bottom;endArrow=block;entryX=0;entryY=0;" edge="1" parent="L2mmnC9NN9h3gjrGADmq-1" target="NFi4Le9Q8Fj7yvYf3liV-4">
          <mxGeometry relative="1" as="geometry">
            <mxPoint x="289.5" y="576" as="sourcePoint" />
          </mxGeometry>
        </mxCell>
        <mxCell id="NFi4Le9Q8Fj7yvYf3liV-50" value="return" style="html=1;verticalAlign=bottom;endArrow=open;dashed=1;endSize=8;exitX=0;exitY=0.95;" edge="1" parent="L2mmnC9NN9h3gjrGADmq-1" source="NFi4Le9Q8Fj7yvYf3liV-4">
          <mxGeometry relative="1" as="geometry">
            <mxPoint x="289.5" y="623.5" as="targetPoint" />
          </mxGeometry>
        </mxCell>
      </root>
    </mxGraphModel>
  </diagram>
</mxfile>
